<svg width="28" height="28" viewBox="0 0 28 28" fill="none" xmlns="http://www.w3.org/2000/svg"><rect width="28" height="28" fill="white" style="mix-blend-mode:multiply"/><path d="M14 14H3.5V15.75H14V14Z" fill="#161616"/><path d="M10.5 9.625H1.75V11.375H10.5V9.625Z" fill="#161616"/><path d="M26.179 14.5306L23.554 8.4056C23.4868 8.24808 23.3747 8.11381 23.2318 8.01947C23.0888 7.92514 22.9213 7.8749 22.75 7.875H20.125V6.125C20.125 5.89294 20.0328 5.67038 19.8687 5.50628C19.7046 5.34219 19.4821 5.25 19.25 5.25H5.25V7H18.375V17.9867C17.9763 18.2182 17.6274 18.5263 17.3484 18.8933C17.0694 19.2603 16.8658 19.6789 16.7493 20.125H11.2507C11.0377 19.3002 10.5312 18.5813 9.82616 18.1032C9.1211 17.6251 8.26587 17.4206 7.42079 17.5279C6.5757 17.6352 5.79877 18.0471 5.23563 18.6863C4.67249 19.3255 4.3618 20.1481 4.3618 21C4.3618 21.8519 4.67249 22.6745 5.23563 23.3137C5.79877 23.9529 6.5757 24.3648 7.42079 24.4721C8.26587 24.5794 9.1211 24.3749 9.82616 23.8968C10.5312 23.4187 11.0377 22.6998 11.2507 21.875H16.7493C16.9401 22.6255 17.3756 23.2911 17.9869 23.7665C18.5983 24.2418 19.3506 24.4999 20.125 24.4999C20.8994 24.4999 21.6517 24.2418 22.2631 23.7665C22.8744 23.2911 23.3099 22.6255 23.5007 21.875H25.375C25.6071 21.875 25.8296 21.7828 25.9937 21.6187C26.1578 21.4546 26.25 21.2321 26.25 21V14.875C26.25 14.7566 26.2258 14.6394 26.179 14.5306ZM7.875 22.75C7.52888 22.75 7.19054 22.6474 6.90275 22.4551C6.61497 22.2628 6.39066 21.9895 6.25821 21.6697C6.12576 21.3499 6.0911 20.9981 6.15863 20.6586C6.22615 20.3191 6.39282 20.0073 6.63756 19.7626C6.88231 19.5178 7.19413 19.3511 7.53359 19.2836C7.87306 19.2161 8.22493 19.2508 8.5447 19.3832C8.86447 19.5157 9.13778 19.74 9.33007 20.0278C9.52236 20.3155 9.625 20.6539 9.625 21C9.62447 21.464 9.43992 21.9088 9.11185 22.2368C8.78377 22.5649 8.33897 22.7495 7.875 22.75ZM20.125 9.625H22.1732L24.0484 14H20.125V9.625ZM20.125 22.75C19.7789 22.75 19.4405 22.6474 19.1528 22.4551C18.865 22.2628 18.6407 21.9895 18.5082 21.6697C18.3758 21.3499 18.3411 20.9981 18.4086 20.6586C18.4762 20.3191 18.6428 20.0073 18.8876 19.7626C19.1323 19.5178 19.4441 19.3511 19.7836 19.2836C20.1231 19.2161 20.4749 19.2508 20.7947 19.3832C21.1145 19.5157 21.3878 19.74 21.5801 20.0278C21.7724 20.3155 21.875 20.6539 21.875 21C21.8745 21.464 21.6899 21.9088 21.3618 22.2368C21.0338 22.5649 20.589 22.7495 20.125 22.75ZM24.5 20.125H23.5007C23.3079 19.3755 22.8719 18.7112 22.261 18.2362C21.6501 17.7612 20.8988 17.5022 20.125 17.5V15.75H24.5V20.125Z" fill="#161616"/></svg>