<svg width="156" height="64" viewBox="0 0 156 64" fill="none" xmlns="http://www.w3.org/2000/svg">
<g clip-path="url(#clip0_1301_148)">
<path d="M121.594 0.5538C121.594 0.5538 121.594 0.6162 121.594 0.6474C120.487 7.2852 114.761 12.1524 108.046 12.1524H106.462C106.15 12.1524 105.908 11.895 105.908 11.5986C105.908 11.5674 105.908 11.5362 105.908 11.505C107.016 4.8672 112.741 0 119.449 0H121.033C121.345 0 121.586 0.2574 121.586 0.5538H121.594Z" fill="white"/>
<path d="M23.1192 16.5593C9.93722 16.5593 3.08882 20.8337 1.56002 30.0221L0.257417 37.9001C-0.389983 41.8001 0.195017 44.7719 2.05142 46.9637C4.62542 50.0135 9.67202 51.5033 17.4564 51.5033C30.5916 51.5033 36.9642 48.8357 38.2902 42.3617C38.3526 42.0497 38.1186 41.7455 37.7988 41.7455H30.3732C30.1548 41.7455 29.952 41.8859 29.8974 42.0965C29.4918 43.5395 27.8226 44.1089 18.5484 44.1089C12.7764 44.1089 10.1166 43.6253 9.07922 42.3929C8.39282 41.5895 8.28362 40.3649 8.67362 38.0327C8.70482 37.8533 8.85302 37.7207 9.03242 37.7207H38.7504C38.9298 37.7207 39.078 37.5881 39.1092 37.4087L40.3104 30.1547C40.9578 26.2469 40.3728 23.2829 38.5164 21.0911C35.9346 18.0413 30.8958 16.5515 23.1114 16.5515L23.1192 16.5593ZM31.9098 30.0221C31.8786 30.2015 31.7226 30.3341 31.5432 30.3341H9.94502L9.97622 30.1625C10.803 25.2017 12.3084 23.9537 22.0428 23.9537C27.8148 23.9537 30.4746 24.4373 31.512 25.6619C32.1984 26.4731 32.3154 27.6977 31.9254 30.0221H31.9098Z" fill="white"/>
<path d="M113.732 17.6514L108.264 50.5362C108.233 50.7156 108.077 50.8482 107.905 50.8482H100.222C99.996 50.8482 99.8244 50.6454 99.8556 50.4192L105.323 17.5266C105.355 17.355 105.511 17.2224 105.682 17.2224H113.365C113.591 17.2224 113.763 17.4252 113.732 17.6514Z" fill="white"/>
<path d="M58.0164 4.53189L50.3646 50.5363C50.3334 50.7157 50.1774 50.8483 50.0058 50.8483H42.3228C42.0966 50.8483 41.925 50.6455 41.964 50.4193L49.608 4.40709C49.6392 4.22769 49.7874 4.09509 49.9668 4.09509H57.6498C57.876 4.09509 58.0476 4.29789 58.0086 4.52409L58.0164 4.53189Z" fill="white"/>
<path d="M155.852 26.2314L155.797 26.559C155.758 26.8007 155.548 26.9802 155.298 26.9802H147.872C147.576 26.9802 147.35 26.7228 147.373 26.4264C147.428 25.8336 147.334 25.4514 147.116 25.2018C146.242 24.1644 142.701 23.9616 136.898 23.9616C126.812 23.9616 124.987 24.6948 124.621 26.8944C124.55 27.3078 124.621 27.6354 124.862 27.9396C125.97 29.3826 130.439 29.8818 135.736 30.342C146.024 31.2468 151.078 32.7288 153.192 35.4666C154.229 36.8082 154.557 38.5008 154.198 40.6614C153.613 44.1558 151.515 46.8468 147.95 48.672C144.277 50.5518 139.019 51.5033 132.311 51.5033C123.279 51.5033 117.998 50.232 115.69 47.502C114.473 46.059 114.067 44.2025 114.465 41.8391L114.52 41.5116C114.559 41.2698 114.769 41.0904 115.019 41.0904H122.444C122.741 41.0904 122.975 41.3477 122.944 41.6441C122.889 42.2603 122.983 42.6113 123.201 42.8687C124.075 43.9061 127.608 44.1168 133.419 44.1168C143.504 44.1168 145.33 43.3835 145.696 41.184C145.766 40.7705 145.696 40.443 145.454 40.131C144.347 38.6958 139.877 38.1966 134.581 37.7285C124.293 36.8237 119.239 35.3417 117.125 32.604C116.087 31.2624 115.76 29.562 116.119 27.4092C116.704 23.9226 118.802 21.2238 122.366 19.4064C126.04 17.5266 131.297 16.575 138.005 16.575C147.038 16.575 152.318 17.8464 154.627 20.5764C155.844 22.0194 156.25 23.8758 155.852 26.247V26.2314Z" fill="white"/>
<path d="M83.5223 16.5593C75.9017 16.5593 71.8925 18.2597 69.8099 20.2487C69.5681 20.4827 69.1625 20.2799 69.1937 19.9445L69.4121 17.6201C69.4355 17.4017 69.2639 17.2145 69.0455 17.2145H62.1269C61.9475 17.2145 61.7993 17.3471 61.7681 17.5187L54.1163 63.5309C54.0773 63.7571 54.2489 63.9599 54.4751 63.9599H62.1581C62.3375 63.9599 62.4857 63.8351 62.5169 63.6557L65.1065 48.0947C65.1611 47.7749 65.5667 47.6813 65.7617 47.9387C67.2437 49.8809 70.6367 51.5033 77.8439 51.5033C83.6783 51.5033 88.0853 50.3255 91.2989 47.8919C94.5281 45.4505 96.5093 41.8001 97.3517 36.7223L98.2253 31.4729C99.0209 26.6993 98.3891 23.1815 96.3065 20.7089C93.9431 17.9165 89.7623 16.5593 83.5223 16.5593ZM89.4971 33.3059L89.2787 34.6163C88.0541 41.9795 85.2227 44.1089 76.6739 44.1089C72.0953 44.1089 69.3575 43.3913 68.0549 41.8469C66.9239 40.5131 66.7211 38.4617 67.3373 34.7489L67.5557 33.4385C68.6477 26.8787 70.7225 23.9459 80.1605 23.9459C84.8405 23.9459 87.3833 24.5933 88.6703 26.1143C89.8403 27.4949 90.0899 29.7101 89.4971 33.2981V33.3059Z" fill="white"/>
</g>
<defs>
<clipPath id="clip0_1301_148">
<rect width="156" height="63.96" fill="white"/>
</clipPath>
</defs>
</svg>
