<svg width="14" height="14" viewBox="0 0 14 14" fill="none" xmlns="http://www.w3.org/2000/svg">
<rect width="14" height="14" fill="white" style="mix-blend-mode:multiply"/>
<path d="M6.125 5.25H5.25V10.5H6.125V5.25Z" fill="#154928"/>
<path d="M8.75 5.25H7.875V10.5H8.75V5.25Z" fill="#154928"/>
<path d="M1.75 2.625V3.5H2.625V12.25C2.625 12.4821 2.71719 12.7046 2.88128 12.8687C3.04538 13.0328 3.26794 13.125 3.5 13.125H10.5C10.7321 13.125 10.9546 13.0328 11.1187 12.8687C11.2828 12.7046 11.375 12.4821 11.375 12.25V3.5H12.25V2.625H1.75ZM3.5 12.25V3.5H10.5V12.25H3.5Z" fill="#154928"/>
<path d="M8.75 0.875H5.25V1.75H8.75V0.875Z" fill="#154928"/>
</svg>
