<svg width="20" height="20" viewBox="0 0 20 20" fill="none" xmlns="http://www.w3.org/2000/svg">
<rect width="19.2" height="19.2" transform="translate(0.400024 0.400024)" fill="white" style="mix-blend-mode:multiply"/>
<path d="M13.8434 7.02069C14.3206 7.02069 14.7074 6.63386 14.7074 6.15669C14.7074 5.67952 14.3206 5.29269 13.8434 5.29269C13.3662 5.29269 12.9794 5.67952 12.9794 6.15669C12.9794 6.63386 13.3662 7.02069 13.8434 7.02069Z" fill="#161616"/>
<path d="M10 6.30273C9.26879 6.30273 8.55395 6.51957 7.94593 6.92584C7.33791 7.33211 6.86401 7.90955 6.58417 8.58515C6.30433 9.26074 6.23111 10.0042 6.37377 10.7214C6.51643 11.4386 6.86857 12.0974 7.38565 12.6145C7.90273 13.1315 8.56153 13.4837 9.27874 13.6263C9.99595 13.769 10.7394 13.6958 11.415 13.4159C12.0905 13.1361 12.668 12.6622 13.0743 12.0542C13.4805 11.4461 13.6974 10.7313 13.6974 10C13.6974 9.01946 13.3078 8.07903 12.6145 7.38565C11.9211 6.69227 10.9806 6.30273 10 6.30273ZM10 12.4001C9.52537 12.4001 9.06136 12.2593 8.66668 11.9956C8.272 11.7319 7.96439 11.357 7.78274 10.9185C7.60109 10.4799 7.55356 9.99739 7.64616 9.53183C7.73877 9.06628 7.96735 8.63864 8.30299 8.30299C8.63864 7.96735 9.06628 7.73877 9.53183 7.64616C9.99739 7.55356 10.4799 7.60109 10.9185 7.78274C11.357 7.96439 11.7319 8.272 11.9956 8.66668C12.2593 9.06136 12.4001 9.52537 12.4001 10C12.4001 10.6366 12.1472 11.247 11.6971 11.6971C11.247 12.1472 10.6366 12.4001 10 12.4001Z" fill="#161616"/>
<path d="M10 4.09737C11.9225 4.09737 12.1503 4.10469 12.9095 4.13937C13.366 4.1448 13.8183 4.22866 14.2464 4.38729C14.5569 4.5071 14.8389 4.69057 15.0743 4.92591C15.3096 5.16124 15.4931 5.44323 15.6129 5.75373C15.7715 6.1819 15.8554 6.63414 15.8608 7.09071C15.8954 7.84989 15.9028 8.07765 15.9028 10.0001C15.9028 11.9226 15.8955 12.1503 15.8608 12.9095C15.8554 13.3661 15.7715 13.8183 15.6129 14.2465C15.4931 14.557 15.3096 14.839 15.0743 15.0743C14.8389 15.3096 14.5569 15.4931 14.2464 15.6129C13.8183 15.7716 13.366 15.8554 12.9095 15.8609C12.1503 15.8955 11.9227 15.9029 10 15.9029C8.07741 15.9029 7.84977 15.8955 7.09065 15.8609C6.63408 15.8554 6.18184 15.7716 5.75367 15.6129C5.44317 15.4931 5.16118 15.3096 4.92585 15.0743C4.69051 14.839 4.50704 14.557 4.38723 14.2465C4.2286 13.8183 4.14474 13.3661 4.13931 12.9095C4.10469 12.1503 4.09731 11.9226 4.09731 10.0001C4.09731 8.07765 4.10463 7.84989 4.13931 7.09071C4.14474 6.63414 4.2286 6.1819 4.38723 5.75373C4.50703 5.44322 4.6905 5.16122 4.92584 4.92587C5.16117 4.69053 5.44316 4.50705 5.75367 4.38723C6.18184 4.2286 6.63408 4.14474 7.09065 4.13931C7.84983 4.10469 8.07759 4.09737 10 4.09737ZM10 2.80005C8.04465 2.80005 7.79943 2.80833 7.03149 2.84337C6.43428 2.85536 5.84343 2.96852 5.28405 3.17805C4.80569 3.36304 4.37125 3.64593 4.00859 4.00859C3.64593 4.37125 3.36304 4.80569 3.17805 5.28405C2.96849 5.84352 2.85532 6.43448 2.84337 7.03179C2.80833 7.79943 2.80005 8.04465 2.80005 10C2.80005 11.9555 2.80833 12.2007 2.84337 12.9686C2.85533 13.5659 2.9685 14.1569 3.17805 14.7164C3.36304 15.1947 3.64593 15.6291 4.00859 15.9918C4.37125 16.3545 4.80569 16.6374 5.28405 16.8224C5.84352 17.0319 6.43448 17.1451 7.03179 17.157C7.79943 17.1918 8.04465 17.2001 10 17.2001C11.9555 17.2001 12.2007 17.1918 12.9686 17.1567C13.5659 17.1448 14.1569 17.0316 14.7164 16.8221C15.1947 16.6371 15.6291 16.3542 15.9918 15.9915C16.3545 15.6288 16.6374 15.1944 16.8224 14.7161C17.0319 14.1566 17.1451 13.5656 17.157 12.9683C17.1918 12.2007 17.2001 11.9555 17.2001 10C17.2001 8.04465 17.1918 7.79943 17.1567 7.03149C17.1447 6.43428 17.0316 5.84343 16.8221 5.28405C16.637 4.80574 16.3541 4.37137 15.9915 4.00876C15.6288 3.64615 15.1944 3.3633 14.7161 3.17835C14.1566 2.9688 13.5656 2.85563 12.9683 2.84367C12.2007 2.80833 11.9555 2.80005 10 2.80005Z" fill="#161616"/>
</svg>
