<svg width="79" height="32" viewBox="0 0 79 32" fill="none" xmlns="http://www.w3.org/2000/svg">
<g clip-path="url(#clip0_95_2336)">
<path d="M60.8354 0.277073C60.8354 0.277073 60.8354 0.308293 60.8354 0.323902C60.2812 3.64488 57.4168 6.08 54.0568 6.08H53.2646C53.1085 6.08 52.9875 5.95122 52.9875 5.80293C52.9875 5.78732 52.9875 5.77171 52.9875 5.7561C53.5417 2.43512 56.4061 0 59.7622 0H60.5544C60.7105 0 60.8315 0.12878 60.8315 0.277073H60.8354Z" fill="#4DA956"/>
<path d="M11.5669 8.28491C4.97178 8.28491 1.54543 10.4234 0.780556 15.0205L0.128849 18.962C-0.195053 20.9132 0.0976295 22.4 1.02641 23.4966C2.31421 25.0225 4.83909 25.7678 8.73373 25.7678C15.3054 25.7678 18.4937 24.4332 19.1571 21.1942C19.1884 21.0381 19.0713 20.8859 18.9113 20.8859H15.1962C15.0869 20.8859 14.9854 20.9561 14.9581 21.0615C14.7552 21.7834 13.9201 22.0683 9.28007 22.0683C6.39226 22.0683 5.06153 21.8264 4.54251 21.2098C4.19909 20.8078 4.14446 20.1952 4.33958 19.0283C4.35519 18.9386 4.42934 18.8722 4.51909 18.8722H19.3874C19.4771 18.8722 19.5513 18.8059 19.5669 18.7161L20.1679 15.0869C20.4918 13.1317 20.1991 11.6488 19.2703 10.5522C17.9786 9.02637 15.4576 8.28101 11.563 8.28101L11.5669 8.28491ZM15.9649 15.0205C15.9493 15.1103 15.8713 15.1766 15.7815 15.1766H4.97568L4.99129 15.0908C5.40495 12.6088 6.15812 11.9844 11.0284 11.9844C13.9162 11.9844 15.2469 12.2264 15.7659 12.8391C16.1093 13.2449 16.1679 13.8576 15.9728 15.0205H15.9649Z" fill="#4DA956"/>
<path d="M56.9013 8.83133L54.1657 25.284C54.1501 25.3738 54.072 25.4401 53.9862 25.4401H50.1423C50.0291 25.4401 49.9433 25.3386 49.9589 25.2255L52.6945 8.76889C52.7101 8.68304 52.7881 8.6167 52.874 8.6167H56.7179C56.8311 8.6167 56.9169 8.71816 56.9013 8.83133Z" fill="#4DA956"/>
<path d="M29.0262 2.26736L25.1979 25.2839C25.1823 25.3737 25.1042 25.44 25.0184 25.44H21.1745C21.0613 25.44 20.9755 25.3386 20.995 25.2254L24.8194 2.20493C24.835 2.11517 24.9091 2.04883 24.9989 2.04883H28.8428C28.9559 2.04883 29.0418 2.15029 29.0223 2.26346L29.0262 2.26736Z" fill="#4DA956"/>
<path d="M77.9748 13.1239L77.9475 13.2878C77.9279 13.4088 77.8226 13.4986 77.6977 13.4986H73.9826C73.8343 13.4986 73.7211 13.3698 73.7328 13.2215C73.7601 12.9249 73.7133 12.7337 73.604 12.6088C73.167 12.0898 71.3953 11.9883 68.4918 11.9883C63.446 11.9883 62.5328 12.3552 62.3494 13.4557C62.3143 13.6625 62.3494 13.8264 62.4704 13.9786C63.0245 14.7005 65.2606 14.9503 67.9104 15.1805C73.0577 15.6332 75.5865 16.3747 76.644 17.7444C77.1631 18.4157 77.327 19.2625 77.1475 20.3435C76.8548 22.0917 75.805 23.4381 74.0216 24.3513C72.1835 25.2917 69.5533 25.7678 66.1972 25.7678C61.6782 25.7678 59.0362 25.1317 57.8811 23.7659C57.2723 23.0439 57.0694 22.1152 57.2684 20.9327L57.2958 20.7688C57.3153 20.6478 57.4206 20.5581 57.5455 20.5581H61.2606C61.4089 20.5581 61.526 20.6869 61.5104 20.8352C61.4831 21.1435 61.5299 21.3191 61.6392 21.4478C62.0762 21.9669 63.844 22.0722 66.7514 22.0722C71.7972 22.0722 72.7104 21.7054 72.8938 20.6049C72.9289 20.3981 72.8938 20.2342 72.7728 20.0781C72.2187 19.36 69.9826 19.1103 67.3328 18.8761C62.1855 18.4235 59.6567 17.682 58.5992 16.3122C58.0801 15.641 57.9162 14.7903 58.0957 13.7132C58.3884 11.9688 59.4382 10.6186 61.2216 9.70931C63.0597 8.76882 65.6899 8.29272 69.046 8.29272C73.565 8.29272 76.207 8.92882 77.3621 10.2947C77.9709 11.0166 78.1738 11.9454 77.9748 13.1317V13.1239Z" fill="#4DA956"/>
<path d="M41.7872 8.28491C37.9746 8.28491 35.9687 9.13564 34.9267 10.1308C34.8058 10.2478 34.6028 10.1464 34.6185 9.97857L34.7277 8.81564C34.7394 8.70638 34.6536 8.61272 34.5443 8.61272H31.0828C30.9931 8.61272 30.9189 8.67906 30.9033 8.76491L27.075 31.7854C27.0555 31.8986 27.1414 32 27.2546 32H31.0985C31.1882 32 31.2624 31.9376 31.278 31.8478L32.5736 24.0625C32.6009 23.9025 32.8038 23.8556 32.9014 23.9844C33.6428 24.9561 35.3404 25.7678 38.9463 25.7678C41.8653 25.7678 44.0702 25.1786 45.678 23.961C47.2936 22.7395 48.2848 20.9132 48.7063 18.3727L49.1433 15.7464C49.5414 13.3581 49.2253 11.5981 48.1833 10.361C47.0009 8.96394 44.9092 8.28491 41.7872 8.28491ZM44.7765 16.6634L44.6672 17.3191C44.0546 21.003 42.638 22.0683 38.3609 22.0683C36.0702 22.0683 34.7004 21.7093 34.0487 20.9366C33.4828 20.2693 33.3814 19.243 33.6897 17.3854L33.7989 16.7298C34.3453 13.4478 35.3833 11.9805 40.1053 11.9805C42.4467 11.9805 43.7189 12.3044 44.3628 13.0654C44.9482 13.7561 45.0731 14.8644 44.7765 16.6595V16.6634Z" fill="#4DA956"/>
</g>
<defs>
<clipPath id="clip0_95_2336">
<rect width="78.0488" height="32" fill="white"/>
</clipPath>
</defs>
</svg>
